<svg aria-hidden="true" style="position: absolute; width: 0; height: 0; overflow: hidden;" version="1.1" xmlns="http://www.w3.org/2000/svg" xmlns:xlink="http://www.w3.org/1999/xlink">
<defs>
<symbol id="icon-tel" viewBox="0 0 32 32">
<path d="M28.865 21.822l-4.525-0.517c-1.087-0.125-2.155 0.249-2.921 1.015l-3.278 3.278c-5.041-2.565-9.174-6.68-11.739-11.739l3.296-3.296c0.766-0.766 1.14-1.835 1.015-2.921l-0.517-4.489c-0.214-1.799-1.728-3.153-3.545-3.153h-3.082c-2.013 0-3.687 1.675-3.563 3.687 0.944 15.213 13.111 27.362 28.306 28.306 2.013 0.125 3.687-1.55 3.687-3.563v-3.082c0.018-1.799-1.336-3.313-3.135-3.527z"></path>
</symbol>
<symbol id="icon-mail" viewBox="0 0 43 32">
<path d="M37.333 0h-32c-2.2 0-3.98 1.8-3.98 4l-0.020 24c0 2.2 1.8 4 4 4h32c2.2 0 4-1.8 4-4v-24c0-2.2-1.8-4-4-4zM36.533 8.5l-14.14 8.84c-0.64 0.4-1.48 0.4-2.12 0l-14.14-8.84c-0.5-0.32-0.8-0.86-0.8-1.44 0-1.34 1.46-2.14 2.6-1.44l13.4 8.38 13.4-8.38c1.14-0.7 2.6 0.1 2.6 1.44 0 0.58-0.3 1.12-0.8 1.44z"></path>
</symbol>
<symbol id="icon-contact" viewBox="0 0 32 32">
<path fill="#4d5ae5" style="fill: var(--color1, #4d5ae5)" d="M16 16c4.42 0 8-3.58 8-8s-3.58-8-8-8c-4.42 0-8 3.58-8 8s3.58 8 8 8zM16 20c-5.34 0-16 2.68-16 8v2c0 1.1 0.9 2 2 2h28c1.1 0 2-0.9 2-2v-2c0-5.32-10.66-8-16-8z"></path>
</symbol>
<symbol id="icon-Checkbox" viewBox="0 0 40 32">
<path fill="#f4f4fd" style="fill: var(--color2, #f4f4fd)" d="M33.784 1.040c0.688-0.68 1.608-1.040 2.564-1.040s1.868 0.4 2.548 1.040c0.684 0.68 1.076 1.6 1.104 2.56 0.024 0.96-0.324 1.881-0.968 2.601l-19.576 24.6c-0.34 0.4-0.744 0.68-1.196 0.88s-0.94 0.32-1.436 0.32c-0.492 0-0.984-0.080-1.444-0.28-0.46-0.16-0.876-0.44-1.224-0.8l-12.984-13.040c-0.364-0.36-0.652-0.76-0.852-1.2-0.204-0.48-0.312-0.959-0.32-1.439-0.008-0.52 0.084-1 0.268-1.48 0.184-0.44 0.46-0.88 0.808-1.24 0.352-0.32 0.768-0.6 1.224-0.8 0.46-0.2 0.952-0.279 1.444-0.279 0.496 0.040 0.984 0.119 1.432 0.319 0.452 0.2 0.86 0.52 1.196 0.88l10.276 10.32 17.040-21.84c0.032-0.040 0.064-0.080 0.1-0.080h-0.004z"></path>
</symbol>
<symbol id="icon-close-black" viewBox="0 0 32 32">
<path d="M32 3.223l-3.223-3.223-12.777 12.777-12.777-12.777-3.223 3.223 12.777 12.777-12.777 12.777 3.223 3.223 12.777-12.777 12.777 12.777 3.223-3.223-12.777-12.777 12.777-12.777z"></path>
</symbol>
</defs>
</svg>
